<?xml version="1.0" encoding="utf-8"?>
<!-- Generator: Adobe Illustrator 26.0.1, SVG Export Plug-In . SVG Version: 6.00 Build 0)  -->
<svg version="1.1" id="Logo" xmlns="http://www.w3.org/2000/svg" xmlns:xlink="http://www.w3.org/1999/xlink" x="0px" y="0px"
	 viewBox="0 0 124 80" style="enable-background:new 0 0 124 80;" xml:space="preserve">
<style type="text/css">
	.st0{fill:#76B900;}
	.st1{fill:#FFFFFF;}
</style>
<g>
	<polygon class="st0" points="124,0 102.6,80 0,80 0,0 	"/>
	<g id="NVIDIA_GTC_4_">
		<path class="st1" d="M40.8,61.8c-2.6,2.7-5.5,3.4-8.8,3.4c-3.5,0-6.2-1.2-8.4-3.4c-3.2-3.2-3-7.4-3-11.9s-0.1-8.8,3.1-12
			c2.3-2.3,4.7-3.4,8.4-3.4c7.7,0,11.1,5.1,11.8,10h-7.4c-0.5-2.3-1.8-3.4-4.3-3.4c-1.4,0-2.4,0.5-2.9,1.3c-0.6,0.9-1.1,1.9-1.1,7.4
			s0.4,6.6,1.1,7.4c0.5,0.8,1.5,1.3,2.9,1.3c1.5,0,2.6-0.4,3.3-1.2c0.9-0.9,1.2-2,1.2-3.2v-0.2h-4.4v-6.2h11.8v4.2
			C43.9,56.5,43.1,59.4,40.8,61.8z"/>
		<path class="st1" d="M60.5,41.3v23.5h-7.4V41.3h-7.4v-6.6H68v6.6C68,41.3,60.5,41.3,60.5,41.3z"/>
		<path class="st1" d="M81.3,65.1c-3.5,0-6.2-1.2-8.4-3.4c-3.2-3.2-3-7.4-3-11.9s-0.1-8.8,3-11.9c2.3-2.3,4.8-3.4,8.4-3.4
			c5.7,0,10.3,3.2,11.4,9.9h-7.5c-0.5-1.7-1.4-3.2-3.9-3.2c-1.4,0-2.4,0.5-2.9,1.3c-0.6,0.9-1.2,1.9-1.2,7.4s0.5,6.6,1.2,7.4
			c0.5,0.8,1.5,1.3,2.9,1.3c2.5,0,3.4-1.5,3.9-3.2h7.5C91.6,61.9,87,65.1,81.3,65.1z"/>
		<g>
			<path id="NVIDIA_3_" class="st1" d="M62.4,17.6v9.7h2.7v-9.7H62.4z M40.9,17.6v9.7h2.8v-7.5h2.2c0.8,0,1.2,0.2,1.5,0.5
				c0.4,0.4,0.6,1.2,0.6,2.6v4.4h2.7v-5.4c0-3.9-2.5-4.3-4.8-4.3H40.9z M66.8,17.6v9.7h4.4c2.4,0,3.1-0.4,4-1.3c0.5-0.6,1-1.9,1-3.4
				c0-1.4-0.3-2.6-0.9-3.3c-1-1.4-2.5-1.6-4.6-1.6C70.6,17.6,66.8,17.6,66.8,17.6z M69.6,19.7h1.2c1.7,0,2.8,0.8,2.8,2.8
				s-1.1,2.8-2.8,2.8h-1.2V19.7z M58.5,17.6l-2.3,7.7l-2.2-7.7h-3l3.1,9.7h3.9l3.1-9.7C61.2,17.6,58.5,17.6,58.5,17.6z M77.5,27.3
				h2.7v-9.7h-2.7V27.3z M85.2,17.6l-3.9,9.7H84l0.6-1.7h4.5l0.5,1.7h2.9l-3.9-9.7H85.2z M87,19.3l1.6,4.5h-3.3L87,19.3z"/>
			<path id="Eye_Mark_1_" class="st1" d="M23.2,19.2v-1.3c0.1,0,0.2,0,0.4,0c3.7-0.1,6,3.1,6,3.1s-2.6,3.5-5.4,3.5
				c-0.4,0-0.8-0.1-1.1-0.2v-4c1.4,0.2,1.7,0.8,2.6,2.3l1.9-1.6c0,0-1.4-1.8-3.8-1.8C23.7,19.2,23.4,19.2,23.2,19.2 M23.2,14.8v2
				c0.1,0,0.2,0,0.4,0C28.7,16.6,32,21,32,21s-3.8,4.6-7.7,4.6c-0.3,0-0.8,0-1.1-0.1v1.2c0.3,0,0.5,0.1,0.9,0.1
				c3.7,0,6.3-1.8,8.9-4.1c0.4,0.3,2.2,1.2,2.6,1.5c-2.5,2-8.2,3.7-11.4,3.7c-0.3,0-0.6,0-0.9,0v1.7h14V14.8H23.2z M23.2,24.4v1.1
				c-3.4-0.6-4.3-4.2-4.3-4.2s1.6-1.8,4.3-2.2v1.3l0,0c-1.4-0.2-2.6,1.2-2.6,1.2S21.3,23.7,23.2,24.4 M17.1,21.1c0,0,2-3,6-3.3v-1.1
				c-4.5,0.3-8.4,4.2-8.4,4.2s2.2,6.3,8.4,6.9v-1.2C18.7,26.1,17.1,21.1,17.1,21.1z"/>
		</g>
	</g>
</g>
</svg>
